<svg xmlns="http://www.w3.org/2000/svg" viewBox="0 0 640 400" role="img" aria-labelledby="title desc">
  <title id="title">Creator Community</title>
  <desc id="desc">Artwork for creator community events.</desc>
  <defs>
    <linearGradient id="community" x1="0%" y1="0%" x2="100%" y2="100%">
      <stop offset="0%" stop-color="#13294b"/>
      <stop offset="100%" stop-color="#1b52a5"/>
    </linearGradient>
  </defs>
  <rect width="640" height="400" rx="28" fill="url(#community)"/>
  <circle cx="170" cy="170" r="60" fill="#e9f3ff" opacity="0.9"/>
  <circle cx="320" cy="150" r="48" fill="#2f7cff" opacity="0.85" stroke="#b7d8ff" stroke-width="8"/>
  <circle cx="460" cy="190" r="64" fill="#0a1726" opacity="0.85" stroke="#e9f3ff" stroke-width="8"/>
  <path d="M200 246c0-28 28-46 64-46s64 18 64 46c0 4-1 8-2 12h-124c-1-4-2-8-2-12Z" fill="#2f7cff" opacity="0.7"/>
  <path d="M340 240c0-20 22-34 50-34s50 14 50 34c0 3-1 7-2 10H342c-1-3-2-7-2-10Z" fill="#0a1726" opacity="0.8"/>
  <text x="70" y="320" font-family="Arial, Helvetica, sans-serif" font-size="40" fill="#e9f3ff" font-weight="700">Creator Community</text>
  <text x="70" y="350" font-family="Arial, Helvetica, sans-serif" font-size="20" fill="#d6e8ff">Streams · Tips · Firmware Fridays</text>
</svg>
